<svg width="452" height="253" viewBox="0 0 452 253" fill="none" xmlns="http://www.w3.org/2000/svg">
<path d="M343.213 105.661C334.614 106.739 324.39 107.859 312.317 109.036C305.156 109.734 298.609 115.125 293.854 120.343C290.963 123.521 288.39 126.937 286.135 130.599C292.317 126.724 302.536 125.146 314.333 123.88C326.124 122.614 339.489 121.656 351.963 119.015C361.104 117.078 368.166 113.703 373.296 109.771C378.421 105.833 381.619 101.333 383.041 97.1455C381.166 98.807 375.557 100.604 364.38 102.573C358.791 103.557 351.812 104.583 343.213 105.661Z" fill="#158BD0"/>
<path d="M382.792 76.6045C376.771 77.6826 369.641 78.7607 361.172 79.9222C360.193 80.0576 359.193 80.193 358.177 80.3337C348.229 81.6722 336.536 83.167 322.745 84.8441C315.599 85.7139 309.542 90.7035 305.24 95.5628C302.557 98.5993 300.224 101.891 298.25 105.433C300.609 104.344 306.599 102.943 309.75 102.354C317.057 100.99 324.505 100.167 331.885 99.3337C337.938 98.641 343.833 98.0055 349.583 97.318C358.766 96.2087 367.458 94.9847 375.88 93.2399C377.521 92.9014 379.135 92.5368 380.719 92.141C389.094 90.0576 395.547 86.2087 400.339 81.8962C405.495 77.2451 408.719 72.0472 410.208 67.6982C406.25 70.9066 399.438 73.3441 387.505 75.7087C386.016 76.0107 384.443 76.3076 382.792 76.6045Z" fill="#158BD0"/>
<path d="M375.51 54.7083C363.708 56.401 349.76 58.2969 333.167 60.651C318.438 62.7396 310.359 80.2656 310.359 80.2656C312.563 79.6667 321.385 78.151 323.979 77.8333C341.969 75.6198 356.672 74 369.698 72.2969C382.724 70.599 394.073 68.8177 405.354 66.276C414.932 64.1042 422.161 59.3542 427.38 54.0208C432.599 48.6875 435.813 42.7708 437.375 38.25C430.484 43.6771 421.026 46.9271 404.995 49.9948C396.974 51.526 387.318 53.0156 375.51 54.7083Z" fill="#158BD0"/>
<mask id="mask0_2016_160" style="mask-type:luminance" maskUnits="userSpaceOnUse" x="271" y="0" width="181" height="139">
<path d="M271.557 0H451.999V139H271.557V0Z" fill="white"/>
</mask>
<g mask="url(#mask0_2016_160)">
<path d="M451.15 0.0625C449.963 10.3542 425.161 20.9531 332.374 36.1667C303.947 40.8229 295.869 51.0521 289.218 72.7552C283.598 91.0833 273.27 131.766 271.557 138.698C279.479 133.484 296.583 92.9948 302.52 79.849C308.458 66.7031 311.973 56.8177 332.374 53.901C389.385 45.7656 415.359 40.7552 425.354 37.1719C455.63 26.3281 451.15 0.0625 451.15 0.0625Z" fill="#158BD0"/>
</g>
<path d="M108.786 105.661C117.385 106.739 127.609 107.859 139.677 109.036C146.844 109.734 153.385 115.125 158.141 120.343C161.036 123.521 163.604 126.937 165.859 130.599C159.682 126.724 149.458 125.146 137.667 123.88C125.875 122.614 112.505 121.656 100.036 119.015C90.8906 117.078 83.8333 113.703 78.7031 109.771C73.5729 105.833 70.375 101.333 68.9531 97.1455C70.8281 98.807 76.4375 100.604 87.6146 102.573C93.2031 103.557 100.182 104.583 108.786 105.661Z" fill="#158BD0"/>
<path d="M69.2025 76.6045C75.2285 77.6826 82.3587 78.7607 90.8275 79.9222C91.8066 80.0576 92.8066 80.193 93.8223 80.3337C103.77 81.6722 115.463 83.167 129.255 84.8441C136.395 85.7139 142.458 90.7035 146.76 95.5628C149.442 98.5993 151.77 101.891 153.749 105.433C151.39 104.344 145.4 102.943 142.249 102.354C134.942 100.99 127.489 100.167 120.114 99.3337C114.062 98.641 108.161 98.0055 102.411 97.318C93.2285 96.2087 84.5358 94.9847 76.1139 93.2399C74.4733 92.9014 72.8639 92.5368 71.2754 92.141C62.9004 90.0576 56.4525 86.2087 51.6608 81.8962C46.5046 77.2451 43.2806 72.0472 41.791 67.6982C45.7493 70.9066 52.5566 73.3441 64.4889 75.7087C65.9837 76.0107 67.5514 76.3076 69.2025 76.6045Z" fill="#158BD0"/>
<path d="M76.4844 54.7083C88.2917 56.401 102.24 58.2969 118.833 60.651C133.563 62.7396 141.635 80.2656 141.635 80.2656C139.432 79.6667 130.615 78.151 128.016 77.8333C110.031 75.6198 95.3281 74 82.3021 72.2969C69.276 70.599 57.9271 68.8177 46.6406 66.276C37.0625 64.1042 29.8385 59.3542 24.6198 54.0208C19.401 48.6875 16.1823 42.7708 14.625 38.25C21.5156 43.6771 30.974 46.9271 47.0052 49.9948C55.0208 51.526 64.6823 53.0156 76.4844 54.7083Z" fill="#158BD0"/>
<mask id="mask1_2016_160" style="mask-type:luminance" maskUnits="userSpaceOnUse" x="0" y="0" width="181" height="139">
<path d="M0 0H180.359V139H0V0Z" fill="white"/>
</mask>
<g mask="url(#mask1_2016_160)">
<path d="M0.848813 0.0625C2.03631 10.3542 26.8384 20.9531 119.625 36.1667C148.052 40.8229 156.13 51.0521 162.781 72.7552C168.396 91.0833 178.729 131.766 180.437 138.698C172.521 133.484 155.417 92.9948 149.479 79.849C143.536 66.7031 140.026 56.8177 119.625 53.901C62.6092 45.7656 36.6405 40.7552 26.6405 37.1719C-3.63035 26.3281 0.848813 0.0625 0.848813 0.0625Z" fill="#158BD0"/>
</g>
<mask id="mask2_2016_160" style="mask-type:luminance" maskUnits="userSpaceOnUse" x="151" y="5" width="151" height="150">
<path d="M151.672 5.1875H301.25V154.766H151.672V5.1875Z" fill="white"/>
</mask>
<g mask="url(#mask2_2016_160)">
<mask id="mask3_2016_160" style="mask-type:luminance" maskUnits="userSpaceOnUse" x="151" y="5" width="151" height="150">
<path d="M226.458 5.1875C185.156 5.1875 151.672 38.6719 151.672 79.974C151.672 121.281 185.156 154.766 226.458 154.766C267.766 154.766 301.25 121.281 301.25 79.974C301.25 38.6719 267.766 5.1875 226.458 5.1875Z" fill="white"/>
</mask>
<g mask="url(#mask3_2016_160)">
<path d="M226.458 5.1875C185.156 5.1875 151.672 38.6719 151.672 79.974C151.672 121.281 185.156 154.766 226.458 154.766C267.766 154.766 301.25 121.281 301.25 79.974C301.25 38.6719 267.766 5.1875 226.458 5.1875Z" stroke="#373737" stroke-width="26"/>
</g>
</g>
<mask id="mask4_2016_160" style="mask-type:luminance" maskUnits="userSpaceOnUse" x="161" y="14" width="131" height="131">
<path d="M161.334 14.9326H291.334V144.933H161.334V14.9326Z" fill="white"/>
</mask>
<g mask="url(#mask4_2016_160)">
<path d="M226.46 23.3962C195.257 23.3962 169.876 48.7764 169.876 79.9795C169.876 111.177 195.257 136.558 226.46 136.558C257.658 136.558 283.038 111.177 283.038 79.9795C283.038 48.7764 257.658 23.3962 226.46 23.3962ZM226.46 145.037C217.678 145.037 209.158 143.318 201.132 139.922C193.387 136.641 186.428 131.953 180.454 125.979C174.48 120.006 169.793 113.052 166.512 105.302C163.121 97.2764 161.402 88.7555 161.402 79.9795C161.402 71.1982 163.121 62.6774 166.512 54.6514C169.793 46.9014 174.48 39.9482 180.454 33.9743C186.428 28.0003 193.387 23.3128 201.132 20.0368C209.158 16.6409 217.678 14.917 226.46 14.917C235.236 14.917 243.757 16.6409 251.783 20.0368C259.533 23.3128 266.486 28.0003 272.46 33.9743C278.434 39.9482 283.126 46.9014 286.402 54.6514C289.793 62.6774 291.517 71.1982 291.517 79.9795C291.517 88.7555 289.793 97.2764 286.402 105.302C283.126 113.047 278.434 120.006 272.46 125.979C266.486 131.953 259.533 136.641 251.783 139.922C243.757 143.318 235.236 145.037 226.46 145.037Z" fill="#373737"/>
</g>
<path d="M228.099 39.4066H224.813C224.547 39.4066 224.328 39.1878 224.328 38.9222V28.8232C224.328 28.5576 224.547 28.3389 224.813 28.3389H228.099C228.365 28.3389 228.583 28.5576 228.583 28.8232V38.9222C228.583 39.1878 228.365 39.4066 228.099 39.4066Z" fill="#373737"/>
<path d="M228.099 131.614H224.813C224.547 131.614 224.328 131.396 224.328 131.13V121.031C224.328 120.765 224.547 120.552 224.813 120.552H228.099C228.365 120.552 228.583 120.765 228.583 121.031V131.13C228.583 131.396 228.365 131.614 228.099 131.614Z" fill="#373737"/>
<path d="M256.307 52.4476L253.984 50.1247C253.797 49.9372 253.797 49.6299 253.984 49.4424L261.125 42.3018C261.313 42.1143 261.62 42.1143 261.807 42.3018L264.13 44.6247C264.318 44.8122 264.318 45.1195 264.13 45.307L256.99 52.4476C256.802 52.6351 256.495 52.6351 256.307 52.4476Z" fill="#373737"/>
<path d="M191.104 117.651L188.781 115.328C188.594 115.14 188.594 114.833 188.781 114.646L195.922 107.505C196.109 107.317 196.417 107.317 196.604 107.505L198.927 109.828C199.115 110.015 199.115 110.323 198.927 110.51L191.792 117.651C191.599 117.838 191.292 117.838 191.104 117.651Z" fill="#373737"/>
<path d="M267.031 81.6195V78.333C267.031 78.0674 267.245 77.8486 267.51 77.8486H277.609C277.875 77.8486 278.094 78.0674 278.094 78.333V81.6195C278.094 81.8851 277.875 82.1038 277.609 82.1038H267.51C267.245 82.1038 267.031 81.8851 267.031 81.6195Z" fill="#373737"/>
<path d="M174.818 81.6195V78.333C174.818 78.0674 175.037 77.8486 175.303 77.8486H185.402C185.667 77.8486 185.886 78.0674 185.886 78.333V81.6195C185.886 81.8851 185.667 82.1038 185.402 82.1038H175.303C175.037 82.1038 174.818 81.8851 174.818 81.6195Z" fill="#373737"/>
<path d="M253.984 109.828L256.307 107.505C256.495 107.317 256.802 107.317 256.99 107.505L264.13 114.646C264.318 114.833 264.318 115.14 264.13 115.328L261.807 117.651C261.62 117.838 261.313 117.838 261.125 117.651L253.984 110.51C253.797 110.323 253.797 110.015 253.984 109.828Z" fill="#373737"/>
<path d="M188.781 44.6247L191.104 42.3018C191.292 42.1143 191.599 42.1143 191.792 42.3018L198.927 49.4424C199.115 49.6299 199.115 49.9372 198.927 50.1247L196.604 52.4476C196.417 52.6351 196.109 52.6351 195.922 52.4476L188.781 45.307C188.594 45.1195 188.594 44.8122 188.781 44.6247Z" fill="#373737"/>
<path d="M249.626 97.7031L231.954 80.0313C231.954 80.0156 231.954 79.9948 231.954 79.9792C231.954 78.75 231.553 77.6146 230.87 76.6979V51.7917C230.87 49.3646 228.886 47.375 226.459 47.375C224.027 47.375 222.042 49.3646 222.042 51.7917V76.6979C221.36 77.6146 220.959 78.75 220.959 79.9792C220.959 82.3542 222.469 84.3802 224.584 85.1458L243.381 103.943C245.1 105.661 247.907 105.661 249.626 103.943C251.339 102.229 251.339 99.4167 249.626 97.7031Z" fill="#373737"/>
<path d="M95.9245 252.134H81.4036L79.4453 239.551H66.7578L64.7995 252.134H50.3828L63.987 179.988H82.2161L95.9245 252.134ZM73.0495 199.884L68.612 227.905H77.5911L73.1536 199.884H73.0495Z" fill="#373737"/>
<path d="M153.542 252.134H123.646V179.988H138.501V239.259H153.542V252.134Z" fill="#373737"/>
<path d="M174.871 179.988H210.017V193.072H199.517V252.134H185.288V193.072H174.871V179.988Z" fill="#373737"/>
<path d="M252.282 252.134H238.053V179.988H252.282V252.134Z" fill="#373737"/>
<path d="M319.385 179.988H332.99L335.552 252.134H322.365L321.031 216.259L313.094 252.03H308.26L300.323 216.259L298.969 252.134H285.781L288.26 179.988H301.656L310.615 217.301L319.385 179.988Z" fill="#373737"/>
<path d="M383.282 221.634V239.259H400.699V252.134H369.053V179.988H400.282V192.863H383.282V209.155H397.719V221.634H383.282Z" fill="#373737"/>
</svg>
